<svg width="800" height="800" viewBox="0 0 800 800" fill="none" xmlns="http://www.w3.org/2000/svg">
<path d="M357.21 364.841L247.042 254.676L278.911 222.809L389.077 332.974L407.214 314.84L291.533 199.157L324.833 165.859C325.098 165.594 325.343 165.319 325.581 165.032C325.844 164.811 326.103 164.585 326.352 164.338L386.579 104.111C391.524 99.1684 391.598 91.1747 386.742 86.1418L386.058 85.428C385.488 84.8284 384.915 84.2311 384.328 83.6422C354.22 53.5351 315.136 35.56 279.777 35.56C255.93 35.56 235.415 43.4693 220.451 58.4347C220.125 58.7591 219.825 59.1027 219.538 59.4569C219.341 59.6293 219.143 59.7969 218.957 59.9827L82.353 196.588C77.3454 201.598 77.3454 209.717 82.353 214.726L102.532 234.904L85.8685 251.567L65.6894 231.386C63.2832 228.981 60.0218 227.629 56.6205 227.629C53.2196 227.629 49.9583 228.981 47.5521 231.386L5.71962 273.222C0.711623 278.232 0.711623 286.35 5.71962 291.356L93.4596 379.097C95.8658 381.501 99.1272 382.854 102.528 382.854C105.929 382.854 109.193 381.502 111.597 379.097L153.426 337.261C158.434 332.255 158.434 324.136 153.426 319.127L133.25 298.95L149.914 282.286L170.089 302.464C172.594 304.968 175.876 306.217 179.158 306.217C182.44 306.217 185.723 304.965 188.225 302.464L223.392 267.297L339.074 382.98L357.21 364.841ZM279.777 61.2084C305.915 61.2084 335.034 73.7804 359.213 95.2071L317.285 137.133L248.881 68.7289C257.549 63.7791 268.021 61.2084 279.777 61.2084ZM102.528 351.892L32.9241 282.289L56.6205 258.591L126.221 328.193L102.528 351.892ZM116.04 279.888L104.929 268.778L120.666 253.041L131.776 264.151L116.04 279.888ZM179.158 275.258L109.558 205.656L228.026 87.1867L297.63 156.792L179.158 275.258Z" fill="black"/>
<path d="M783.998 691.62L520.134 427.759L501.999 445.893L756.797 700.691L724.93 732.562L470.129 477.76L451.994 495.898L715.863 759.767C718.267 762.171 721.53 763.524 724.93 763.524C728.333 763.524 731.596 762.171 734.001 759.767L784.002 709.758C789.008 704.749 789.008 696.63 783.998 691.62Z" fill="black"/>
<path d="M791.308 117.454C789.855 113.288 786.359 110.165 782.059 109.181C777.761 108.2 773.256 109.496 770.136 112.616L718.321 164.428L669.74 115.843L721.555 64.0342C724.675 60.9138 725.974 56.4093 724.991 52.1084C724.007 47.8067 720.883 44.3124 716.718 42.8578C703.797 38.3471 690.282 36.0587 676.549 36.0587C644.077 36.0587 613.552 48.7027 590.595 71.6604C567.63 94.6204 554.985 125.147 554.985 157.619C554.985 173.327 557.973 188.573 563.626 202.736L236.407 529.952C222.247 524.298 207.004 521.314 191.297 521.314C158.827 521.314 128.3 533.96 105.339 556.921C72.5377 589.721 61.2306 639.229 76.5346 683.043C77.9889 687.208 81.4831 690.332 85.7844 691.316C90.0835 692.296 94.5884 691.005 97.7102 687.885L149.524 636.069L198.108 684.646L146.293 736.462C143.172 739.582 141.876 744.087 142.858 748.388C143.842 752.689 146.965 756.181 151.13 757.638C164.048 762.15 177.56 764.436 191.296 764.44C191.299 764.44 191.299 764.44 191.303 764.44C223.766 764.44 254.293 751.791 277.254 728.83C312.613 693.467 321.576 641.562 304.171 597.798L631.436 270.539C645.598 276.196 660.841 279.18 676.55 279.18C676.553 279.18 676.55 279.18 676.553 279.18C709.018 279.18 739.547 266.538 762.505 243.577C795.306 210.776 806.612 161.268 791.308 117.454ZM259.116 710.696C240.999 728.812 216.917 738.792 191.303 738.792C191.303 738.792 191.297 738.792 191.296 738.792C187.778 738.788 184.277 738.598 180.806 738.223L225.311 693.717C227.717 691.309 229.068 688.049 229.068 684.647C229.068 681.248 227.717 677.984 225.311 675.58L158.591 608.865C153.585 603.859 145.464 603.859 140.455 608.865L95.9786 653.341C92.9408 624.837 102.793 595.74 123.477 575.054C141.593 556.938 165.678 546.962 191.298 546.962C216.916 546.962 241 556.938 259.115 575.058C296.509 612.45 296.509 673.3 259.116 710.696ZM293.014 572.682L261.483 541.148L573.706 228.932L605.24 260.462L293.014 572.682ZM744.37 225.443C726.254 243.555 702.169 253.531 676.549 253.531C650.929 253.531 626.842 243.556 608.725 225.439C590.613 207.323 580.633 183.238 580.633 157.618C580.633 131.999 590.613 107.914 608.729 89.7969C626.842 71.6822 650.93 61.7062 676.55 61.7062C680.071 61.7062 683.57 61.8969 687.041 62.2751L642.535 106.776C640.131 109.18 638.779 112.444 638.779 115.843C638.779 119.246 640.131 122.505 642.535 124.91L709.25 191.628C714.259 196.638 722.382 196.638 727.388 191.632L771.864 147.155C774.903 175.66 765.052 204.757 744.37 225.443Z" fill="black"/>
</svg>
